HIERARCHY
ROOT Hips
{
	OFFSET 0.000000 0.000000 0.000000 
	CHANNELS 6 Xposition Yposition Zposition Zrotation Yrotation Xrotation
	JOINT LeftUpLeg
	{
		OFFSET 1.363060 -1.794630 0.839290 
		CHANNELS 3 Zrotation Yrotation Xrotation
		JOINT LeftLeg
		{
			OFFSET 2.448110 -6.726130 0.000000 
			CHANNELS 3 Zrotation Yrotation Xrotation
			JOINT LeftFoot
			{
				OFFSET 2.562200 -7.039590 0.000000 
				CHANNELS 3 Zrotation Yrotation Xrotation
				JOINT LeftToeBase
				{
					OFFSET 0.157640 -0.433110 2.322550 
					CHANNELS 3 Zrotation Yrotation Xrotation
					End Site
					{
						OFFSET 0.000000 0.000000 0.000000 
					}
				}
			}
		}
	}
	JOINT RightUpLeg
	{
		OFFSET -1.305520 -1.794630 0.839290 
		CHANNELS 3 Zrotation Yrotation Xrotation
		JOINT RightLeg
		{
			OFFSET -2.542530 -6.985550 0.000000 
			CHANNELS 3 Zrotation Yrotation Xrotation
			JOINT RightFoot
			{
				OFFSET -2.568260 -7.056230 0.000000 
				CHANNELS 3 Zrotation Yrotation Xrotation
				JOINT RightToeBase
				{
					OFFSET -0.164730 -0.452590 2.363150 
					CHANNELS 3 Zrotation Yrotation Xrotation
					End Site
					{
						OFFSET 0.000000 0.000000 0.000000 
					}
				}
			}
		}
	}
	JOINT Spine
	{
		OFFSET 0.028270 2.035590 -0.193380 
		CHANNELS 3 Zrotation Yrotation Xrotation
		JOINT Spine1
		{
			OFFSET 0.056720 2.048850 -0.042750 
			CHANNELS 3 Zrotation Yrotation Xrotation
			JOINT Neck1
			{
				OFFSET -0.054170 1.746240 0.172020 
				CHANNELS 3 Zrotation Yrotation Xrotation
				JOINT Head
				{
					OFFSET 0.104070 1.761360 -0.123970 
					CHANNELS 3 Zrotation Yrotation Xrotation
					End Site
					{
						OFFSET 0.000000 0.000000 0.000000 
					}
				}
			}
			JOINT LeftArm
			{
				OFFSET 3.362410 1.200890 -0.311210 
				CHANNELS 3 Zrotation Yrotation Xrotation
				JOINT LeftForeArm
				{
					OFFSET 4.983000 -0.000000 -0.000000 
					CHANNELS 3 Zrotation Yrotation Xrotation
					JOINT LeftHand
					{
						OFFSET 3.483560 -0.000000 -0.000000 
						CHANNELS 3 Zrotation Yrotation Xrotation
						JOINT LeftHandIndex1
						{
							OFFSET 0.715260 -0.000000 -0.000000 
							CHANNELS 3 Zrotation Yrotation Xrotation
							End Site
							{
								OFFSET 0.000000 0.000000 0.000000 
							}
						}
					}
				}
			}
			JOINT RightArm
			{
				OFFSET -3.136600 1.374050 -0.404650 
				CHANNELS 3 Zrotation Yrotation Xrotation
				JOINT RightForeArm
				{
					OFFSET -5.241900 -0.000000 -0.000000 
					CHANNELS 3 Zrotation Yrotation Xrotation
					JOINT RightHand
					{
						OFFSET -3.444170 -0.000000 -0.000000 
						CHANNELS 3 Zrotation Yrotation Xrotation
						JOINT RightHandIndex1
						{
							OFFSET -0.622530 -0.000000 -0.000000 
							CHANNELS 3 Zrotation Yrotation Xrotation
							End Site
							{
								OFFSET 0.000000 0.000000 0.000000 
							}
						}
					}
				}
			}
		}
	}
}
MOTION
Frames: 7
Frame Time: 0.041667
0.000000 0.000000 0.000000 117.294415 -56.589348 114.611890 43.015839 41.261094 -66.620493 32.599845 -26.488638 -39.442823 36.585200 -27.067868 -68.400081 0.000000 0.000000 0.000000 -73.436984 26.781758 48.575519 101.183978 -84.802502 22.705588 95.434348 -15.947400 -121.735520 0.000000 0.000000 0.000000 151.903159 58.293825 79.437870 32.646918 -52.821863 15.639960 -36.405505 2.887710 -117.420595 0.000000 0.000000 0.000000 -109.730510 -34.238465 -83.364219 134.991596 -63.412824 -57.963664 -51.127394 1.416797 21.522747 0.000000 0.000000 0.000000 -27.213015 -69.118102 149.055920 10.441168 -4.253532 90.793288 38.641194 -51.693089 80.539800 0.000000 0.000000 0.000000 
27.826909 55.123420 -134.574711 138.553497 24.960162 -157.240915 -79.672683 -32.123351 -135.260136 -63.024985 -40.232327 138.786659 128.725475 -22.718609 -72.471634 0.000000 0.000000 0.000000 -153.512181 2.540606 150.057599 96.023512 25.312744 -119.954732 34.511682 -58.291115 85.670949 -0.192100 2.822400 -7.784700 -17.214300 15.842138 -152.895008 -22.671365 18.778648 125.433391 22.991563 -77.418197 -47.537313 4.169800 -0.762100 10.894200 161.584886 52.917208 -140.115291 0.881454 -5.918947 147.483558 -27.205470 -69.549644 -5.145513 -7.125000 0.000000 0.000000 65.802373 -38.570407 26.952326 -175.372803 24.763686 169.584065 -9.743455 -64.071926 -30.912719 7.125000 0.000000 0.000000 
27.858678 55.156915 -133.788782 119.514780 -64.468710 -37.339136 9.280040 -4.716856 173.809043 -8.380872 -80.483856 141.124530 70.826130 67.439140 -51.044220 0.000000 0.000000 0.000000 -103.821510 71.655956 -119.892726 172.542058 52.576057 -126.541460 114.076551 -21.358936 64.211597 -0.094900 1.986900 -5.469400 -70.467147 19.153143 125.121127 -56.566974 29.008450 -97.733370 -41.795940 -89.345840 -69.962013 4.079000 -0.921200 10.867900 -15.591047 -43.377020 -72.948273 -175.030669 55.842230 -44.270023 -31.903854 -36.299099 -100.198866 -7.125000 0.000000 0.000000 29.422455 19.771383 22.113605 -103.625359 -69.444887 -164.859091 -50.244565 -30.648622 26.098017 7.125000 0.000000 0.000000 
27.882159 55.114788 -132.999746 74.826774 -23.529946 -166.586449 134.483191 13.175033 -60.613938 -155.186460 29.552218 -159.377264 58.232838 -22.249066 91.339446 0.000000 0.000000 0.000000 -148.507246 -21.266811 -48.786168 25.821063 -15.383872 42.929269 14.855090 -63.521082 166.519133 -0.058200 1.557300 -4.283600 45.913209 -47.227179 -134.173552 -0.729262 -22.642994 -156.386557 133.752335 44.742971 63.125055 4.058400 -0.980700 10.974400 -148.447432 -7.463038 21.525534 -141.310250 -81.920009 3.825605 6.337860 10.770705 29.440874 -7.125000 0.000000 0.000000 -173.698644 42.515392 175.031590 1.929470 -10.020195 108.937729 171.578640 -76.061442 149.607202 7.125000 0.000000 0.000000 
27.898043 54.970793 -132.187228 -153.141202 -67.110188 176.823338 -117.976894 8.759107 30.879048 65.951558 -65.798497 -75.768452 -149.400735 -1.558822 164.691559 0.000000 0.000000 0.000000 95.294416 -58.484609 146.909111 6.828322 -76.756887 -162.025345 35.086997 32.099031 -46.010534 -0.017400 0.852600 -2.343400 149.426639 -15.889722 13.698243 -4.362513 14.636860 -30.237863 24.982032 -7.320870 174.337185 4.098400 -0.954000 11.099600 -155.414644 -25.321672 78.994780 -99.119609 -16.077387 29.354806 27.203089 -7.356981 20.931101 -7.125000 0.000000 0.000000 178.670938 -61.267881 -91.579595 39.298023 66.583668 -21.282635 -70.355519 66.464154 25.026241 7.125000 0.000000 0.000000 
27.887339 55.324737 -131.274225 -48.203369 3.705051 -110.008580 -22.435873 -56.800649 -53.867895 62.040951 1.981147 -50.281771 -3.226700 9.998612 122.581492 0.000000 0.000000 0.000000 0.519194 -6.589314 73.065396 -94.050741 11.882090 36.538100 -53.779484 4.254507 -8.799458 -0.006400 0.515600 -1.416900 15.672699 84.774545 76.948697 -168.038022 -64.237977 -143.310219 -113.454979 83.235749 -123.352221 4.241600 -0.948500 11.245800 -158.260701 49.470980 123.336425 173.172969 -10.845793 -146.908776 -10.939187 19.339375 60.753937 -7.125000 0.000000 0.000000 1.618426 64.084811 -34.935099 120.708306 -45.351276 55.868010 153.824960 65.872066 -169.095295 7.125000 0.000000 0.000000 
27.893900 55.084400 -130.471377 24.954697 -77.625964 -138.216009 150.756135 73.332874 -6.236724 -170.304491 37.404869 129.078359 -38.455677 89.695346 141.250757 1.768800 -8.366900 -23.834300 -167.751191 -76.845992 161.219796 11.101557 11.105108 -73.542305 -82.414837 68.635050 111.920742 -0.026400 1.049300 -2.884600 108.484819 -33.810974 -135.535437 0.660646 -84.701219 -172.636259 73.634168 66.255876 25.010882 4.537900 -0.949700 11.456700 -94.765461 49.753470 -121.041924 -11.973418 -87.806018 171.599832 -30.519642 31.309935 -10.356266 -7.125000 0.000000 0.000000 -111.595279 72.637917 124.239227 103.658981 50.210558 -127.682909 10.894721 -59.883288 16.754288 7.125000 0.000000 0.000000 
